<svg xmlns="http://www.w3.org/2000/svg" viewBox="0 0 48 48" width="48" height="48">
  <rect width="48" height="48" rx="8" fill="#1a1a2e"/>
  <g fill="none" stroke="#e94560" stroke-width="1.5" stroke-linecap="round" stroke-linejoin="round">
    <path d="M6 34 C10 34, 12 33, 16 31 C20 29, 22 28, 26 30 C30 32, 32 33, 36 31 C38 30, 40 29, 42 29"/>
    <path d="M6 29 C10 29, 12 26, 16 22 C18 19, 20 21, 22 23 C24 25, 26 26, 30 24 C34 22, 36 25, 42 24"/>
    <path d="M6 24 C9 24, 11 22, 14 18 C17 14, 19 12, 22 16 C25 20, 27 21, 30 18 C33 15, 36 17, 42 19"/>
    <path d="M6 19 C10 19, 13 17, 16 14 C19 11, 20 9, 24 12 C27 14, 29 15, 32 13 C35 11, 38 13, 42 14"/>
    <path d="M6 14 C10 14, 14 13, 18 11 C20 10, 22 9, 26 10 C30 11, 33 10, 38 9 C40 8.5, 41 9, 42 9"/>
  </g>
</svg>
